<svg width="131" height="134" viewBox="0 0 131 134" fill="none" xmlns="http://www.w3.org/2000/svg">
<path fill-rule="evenodd" clip-rule="evenodd" d="M73.7882 11.3803C74.1033 12.2297 74.3355 14.1755 74.3045 15.7034C74.2537 18.2124 74.0458 18.7152 72.1643 20.8783C70.414 22.8904 69.7245 23.3682 67.8571 23.8601C65.519 24.4762 62.1218 23.828 59.9329 22.3484C56.4963 20.0247 55.323 14.1723 57.5267 10.3447C59.6312 6.68887 65.0853 4.91814 69.0311 6.60982C70.9148 7.4172 73.1502 9.65902 73.7882 11.3803Z" fill="url(#paint0_linear)" stroke="black" stroke-width="2"/>
<path fill-rule="evenodd" clip-rule="evenodd" d="M99.4689 37.1593C102.961 44.3099 95.9804 52.3421 88.5256 49.7506C80.1921 46.8535 79.949 35.9669 88.141 32.5133C89.5362 31.9254 92.6098 31.9431 94.5086 32.5504C96.3559 33.1414 98.4629 35.0988 99.4689 37.1593Z" fill="url(#paint1_linear)" stroke="black" stroke-width="2"/>
<path fill-rule="evenodd" clip-rule="evenodd" d="M73.8008 38.2214C74.135 39.0708 74.3301 40.6746 74.2345 41.7851C73.3897 51.595 60.0218 53.3506 56.5939 44.101C55.6599 41.5812 55.7227 40.1506 56.8854 37.4486C58.7465 33.1245 63.625 31.0196 68.3027 32.5221C69.879 33.0285 73.0527 36.318 73.8008 38.2214Z" fill="url(#paint2_linear)" stroke="black" stroke-width="2"/>
<path fill-rule="evenodd" clip-rule="evenodd" d="M47.884 38.7589C49.5975 45.8284 43.0062 52.0817 36.2987 49.7499C26.794 46.4459 28.5665 32.5437 38.5504 32.086C39.6045 32.0376 41.1193 32.2031 41.9172 32.4533C44.0532 33.1234 47.3667 36.6247 47.884 38.7589Z" fill="url(#paint3_linear)" stroke="black" stroke-width="2"/>
<path fill-rule="evenodd" clip-rule="evenodd" d="M46.2149 61.5377C46.3522 61.7885 46.8024 62.5232 47.216 63.1704C49.1953 66.2683 47.8685 72.1373 44.664 74.4582C39.5286 78.1778 32.5512 76.0052 30.4777 70.0409C28.7112 64.9588 31.9672 59.4134 37.2529 58.5019C38.6602 58.2591 40.642 58.3417 41.6565 58.6857C43.5391 59.3234 45.7664 60.7165 46.2149 61.5377Z" fill="url(#paint4_linear)" stroke="black" stroke-width="2"/>
<path fill-rule="evenodd" clip-rule="evenodd" d="M46.8878 88.655C49.3498 92.6386 48.0657 98.381 44.1071 101.089C42.4571 102.217 38.0712 102.648 35.7493 101.909C32.0318 100.726 29.286 95.794 30.1051 91.7709C31.3987 85.4135 38.1541 82.4571 43.8958 85.735C44.8842 86.2992 45.7568 86.8557 45.8352 86.9715C45.9135 87.0872 46.3871 87.8452 46.8878 88.655Z" fill="url(#paint5_linear)" stroke="black" stroke-width="2"/>
<path fill-rule="evenodd" clip-rule="evenodd" d="M72.3227 87.6553C72.4624 87.9038 72.9085 88.6243 73.3132 89.257C75.5081 92.6877 73.954 98.5341 70.1578 101.131C68.4273 102.315 63.8339 102.638 61.6218 101.731C53.5864 98.4385 54.5724 86.6264 63.0495 84.6252C66.236 83.8729 71.0823 85.4566 72.3227 87.6553Z" fill="url(#paint6_linear)" stroke="black" stroke-width="2"/>
<path fill-rule="evenodd" clip-rule="evenodd" d="M99.9807 90.3446C101.176 94.4965 99.7005 98.7847 96.2706 101.131C94.5401 102.315 89.9467 102.638 87.7345 101.731C84.3974 100.364 81.8588 96.4158 82.0367 92.8715C82.1224 91.1682 83.5057 88.1892 84.8582 86.7957C86.4412 85.1647 90.2392 84.1001 92.9373 84.5313C95.0115 84.863 95.706 85.2498 97.5236 87.0851C98.7015 88.275 99.8071 89.7419 99.9807 90.3446Z" fill="url(#paint7_linear)" stroke="black" stroke-width="2"/>
<path fill-rule="evenodd" clip-rule="evenodd" d="M72.7874 114.529C76.12 120.89 72.1268 128.221 65.2299 128.403C58.3248 128.585 53.8775 121.491 56.9158 115.14C58.0457 112.778 59.7981 111.392 62.7524 110.526C66.2366 109.504 71.191 111.48 72.7874 114.529Z" fill="url(#paint8_linear)" stroke="black" stroke-width="2"/>
<defs>
<linearGradient id="paint0_linear" x1="71.731" y1="21.4088" x2="58.9186" y2="8.59643" gradientUnits="userSpaceOnUse">
<stop stop-color="#59C2FF"/>
<stop offset="1" stop-color="#1270E3"/>
</linearGradient>
<linearGradient id="paint1_linear" x1="97.7028" y1="47.5408" x2="84.8478" y2="34.6859" gradientUnits="userSpaceOnUse">
<stop stop-color="#46EEAA"/>
<stop offset="1" stop-color="#2CBFC7"/>
</linearGradient>
<linearGradient id="paint2_linear" x1="71.5251" y1="47.6655" x2="58.6497" y2="34.7901" gradientUnits="userSpaceOnUse">
<stop stop-color="#46EEAA"/>
<stop offset="1" stop-color="#2CBFC7"/>
</linearGradient>
<linearGradient id="paint3_linear" x1="45.4168" y1="47.6168" x2="32.5122" y2="34.7122" gradientUnits="userSpaceOnUse">
<stop stop-color="#46EEAA"/>
<stop offset="1" stop-color="#2CBFC7"/>
</linearGradient>
<linearGradient id="paint4_linear" x1="45.5766" y1="73.6563" x2="32.7203" y2="60.8001" gradientUnits="userSpaceOnUse">
<stop stop-color="#FFEA82"/>
<stop offset="1" stop-color="#FFBD13"/>
</linearGradient>
<linearGradient id="paint5_linear" x1="45.6139" y1="99.7928" x2="32.7169" y2="86.8958" gradientUnits="userSpaceOnUse">
<stop stop-color="#FFDF40"/>
<stop offset="1" stop-color="#FF8359"/>
</linearGradient>
<linearGradient id="paint6_linear" x1="71.6729" y1="99.8183" x2="58.7914" y2="86.9368" gradientUnits="userSpaceOnUse">
<stop stop-color="#FFDF40"/>
<stop offset="1" stop-color="#FF8359"/>
</linearGradient>
<linearGradient id="paint7_linear" x1="97.704" y1="99.9275" x2="84.7149" y2="86.9384" gradientUnits="userSpaceOnUse">
<stop stop-color="#FFDF40"/>
<stop offset="1" stop-color="#FF8359"/>
</linearGradient>
<linearGradient id="paint8_linear" x1="71.4317" y1="125.717" x2="58.5323" y2="112.818" gradientUnits="userSpaceOnUse">
<stop stop-color="#FF7C6E"/>
<stop offset="1" stop-color="#F5317F"/>
</linearGradient>
</defs>
</svg>
